# xmcd
#
# Track frame offsets: 
#        150
#        17211
#        31023
#        46136
#        64073
#        84193
#        103345
#        117910
#        133398
#        151226
#        170380
#        189807
#
# Disc length: 2797 seconds
#
# Revision: 7
# Processed by: cddbd v1.5.2PL0 Copyright (c) Steve Scherf et al.
# Submitted via: ExactAudioCopyFreeDBPlugin 1.0
#
DISCID=910aeb0c
DTITLE=Dierks Bentley - Feel That Fire
DYEAR=2009
DGENRE=Country
TTITLE0=Life On The Run
TTITLE1=Sideways
TTITLE2=Feel That Fire
TTITLE3=I Wanna Make You Close Your Eyes
TTITLE4=Here She Comes
TTITLE5=I Can't Forget Her
TTITLE6=Beautiful World (Featuring Patty Griffin)
TTITLE7=Little Heartwrecker
TTITLE8=You Hold Me Together
TTITLE9=Better Believer
TTITLE10=Pray
TTITLE11=Last Call (With Ronnie Mccoury and Friends)
EXTD=
EXTT0=
EXTT1=
EXTT2=
EXTT3=
EXTT4=
EXTT5=
EXTT6=
EXTT7=
EXTT8=
EXTT9=
EXTT10=
EXTT11=
PLAYORDER=
